<?xml version="1.0" encoding="us-ascii" standalone="no"?><svg xmlns="http://www.w3.org/2000/svg" xmlns:xlink="http://www.w3.org/1999/xlink" contentStyleType="text/css" height="6756.25px" preserveAspectRatio="none" style="width:9950px;height:6756px;background:#FFFFFF;" version="1.1" viewBox="0 0 9950 6756" width="9950px" zoomAndPan="magnify"><defs/><g><!--cluster Inputs--><g id="cluster_Inputs"><path d="M398.389,325.3335 C494.5652,141.2026 683.2888,95.061 816.203,284.2126 C923.0033,61.7523 1072.9429,73.8667 1208.4599,256.3989 C1370.4144,75.3242 1524.5849,37.5 1663.3843,281.1977 C1774.489,99.1553 1914.0196,93.1716 2055.0061,246.281 C2196.2879,56.3898 2332.314,61.8457 2485.276,232.3356 C2609.3879,47.4965 2764.015,59.6359 2887.6401,232.8826 C3014.8569,64.1034 3153.5114,72.9063 3270.3108,244.5914 C3381.2736,75.4815 3583.3946,70.6423 3674.5725,266.5059 C3826.9113,91.2435 3995.8536,83.7549 4094.982,320.7664 C4222.9119,83.7914 4394.676,81.0289 4541.8102,302.0296 C4566.4277,287.7206 4585.2366,294.5144 4585.8331,325.4184 C4809.3348,459.1212 4805.4177,657.8694 4575.6986,781.5013 C4740.0664,895.3119 4741.4307,1075.6483 4573.3623,1187.5461 C4793.8761,1316.0116 4774.1743,1547.4542 4562.8735,1666.4624 C4771.6126,1747.2933 4771.9973,1894.8526 4619.6134,2031.7729 C4798.6152,2173.4539 4787.0287,2398.0092 4578.6737,2506.2688 C4763.9707,2666.6247 4782.2608,2806.3908 4573.5287,2962.3013 C4763.0913,3062.1366 4804.9126,3229.29 4627.6134,3376.9741 C4821.4518,3526.7626 4759.9945,3699.4751 4560.2015,3784.0834 C4796.3606,3919.6629 4803.3183,4061.3448 4573.1842,4211.101 C4834.0834,4361.7379 4833.2733,4539.7047 4570.4987,4687.3889 C4795.4522,4828.8652 4794.3773,5007.8407 4554.3179,5132.4093 C4781.0553,5217.1222 4755.6319,5415.708 4590.9658,5535.9652 C4764.7924,5670.4119 4807.2567,5825.6339 4585.79,5955.2004 C4754.2064,6106.6697 4724.5842,6322.9523 4498.0602,6395.7796 C4544.796,6388.4702 4570.2081,6403.5505 4562.8052,6455.2156 C4427.9583,6650.5013 4263.0609,6702.3584 4110.7227,6473.8756 C3999.4171,6673.3853 3838.8064,6662.9851 3732.6577,6468.9218 C3632.9396,6648.3731 3455.5741,6698.4363 3324.054,6503.6435 C3203.891,6690.1262 3008.8608,6699.3505 2900.4276,6491.0566 C2764.2935,6669.3505 2574.2054,6708.2477 2449.8355,6478.0789 C2313.5825,6695.4331 2151.7085,6646.3503 2032.7816,6460.1722 C1917.3338,6633.455 1768.3244,6612.5846 1658.937,6453.3584 C1553.4146,6675.5928 1361.5313,6712.7835 1224.4329,6483.7623 C1079.0479,6681.4214 947.0218,6673.868 825.5575,6460.5463 C631.814,6653.0965 424.9076,6608.3025 329.3102,6352.0296 C343.3799,6327.882 362.4342,6335.0085 374.8945,6353.7406 C152.1147,6228.7135 147.8203,6092.1529 358.4452,5949.4903 C176.0696,5797.9914 165.8002,5651.5935 386.5758,5526.9333 C137.7893,5423.1743 141.9581,5196.7853 352.7915,5059.7864 C177.3389,4927.6469 175.7258,4783.3278 353.9667,4652.2081 C165.4495,4545.1512 157.2126,4317.8561 336.197,4196.47 C126.6671,4127.8397 72.4516,3947.6268 268.0419,3807.9325 C55.2015,3643.9142 37.5,3461.4061 300.6,3329.7964 C120.2557,3231.0051 105.1004,3041.4083 286.0677,2929.5001 C68.7532,2763.807 109.5294,2619.4046 317.066,2483.2214 C126.5735,2339.5258 151.666,2192.3904 362.3091,2095.5035 C148.2807,1986.1686 125.852,1798.9383 311.2006,1644.3594 C111.2971,1476.2416 173.6648,1321.8602 379.0795,1218.3198 C159.9856,1065.7937 125.3121,912.8471 363.4006,745.1711 C157.856,616.5095 107.9921,377.6046 373.0602,258.2796 C407.7634,265.4584 423.225,295.6644 398.389,325.3335 " fill="none" style="stroke:#181818;stroke-width:6.25;"/><text fill="#000000" font-family="sans-serif" font-size="87.5" font-weight="bold" lengthAdjust="spacing" textLength="306.25" x="2282.4352" y="370.7491">Inputs</text></g><!--cluster Model Configuration--><g id="cluster_Model Configuration"><path d="M666.8102,577.0296 L1666.8102,577.0296 A23.4375,23.4375 0 0 1 1682.4352,592.6546 L1726.1852,716.3851 L4326.1852,716.3851 A15.625,15.625 0 0 1 4341.8102,732.0101 L4341.8102,1892.6546 A15.625,15.625 0 0 1 4326.1852,1908.2796 L666.8102,1908.2796 A15.625,15.625 0 0 1 651.1852,1892.6546 L651.1852,592.6546 A15.625,15.625 0 0 1 666.8102,577.0296 " fill="none" style="stroke:#000000;stroke-width:9.375;"/><line style="stroke:#000000;stroke-width:9.375;" x1="651.1852" x2="1726.1852" y1="716.3851" y2="716.3851"/><text fill="#000000" font-family="sans-serif" font-size="87.5" font-weight="bold" lengthAdjust="spacing" textLength="993.75" x="676.1852" y="670.7491">Model Configuration</text></g><!--cluster Training Configuration--><g id="cluster_Training Configuration"><path d="M544.9352,4814.5296 L1651.1852,4814.5296 A23.4375,23.4375 0 0 1 1666.8102,4830.1546 L1710.5602,4953.8851 L2644.9352,4953.8851 A15.625,15.625 0 0 1 2660.5602,4969.5101 L2660.5602,6130.1546 A15.625,15.625 0 0 1 2644.9352,6145.7796 L544.9352,6145.7796 A15.625,15.625 0 0 1 529.3102,6130.1546 L529.3102,4830.1546 A15.625,15.625 0 0 1 544.9352,4814.5296 " fill="none" style="stroke:#000000;stroke-width:9.375;"/><line style="stroke:#000000;stroke-width:9.375;" x1="529.3102" x2="1710.5602" y1="4953.8851" y2="4953.8851"/><text fill="#000000" font-family="sans-serif" font-size="87.5" font-weight="bold" lengthAdjust="spacing" textLength="1100" x="554.3102" y="4908.2491">Training Configuration</text></g><!--cluster Dataset--><g id="cluster_Dataset"><path d="M935.5602,3233.2796 L1316.8102,3233.2796 A23.4375,23.4375 0 0 1 1332.4352,3248.9046 L1376.1852,3372.6351 L2254.3102,3372.6351 A15.625,15.625 0 0 1 2269.9352,3388.2601 L2269.9352,4548.9046 A15.625,15.625 0 0 1 2254.3102,4564.5296 L935.5602,4564.5296 A15.625,15.625 0 0 1 919.9352,4548.9046 L919.9352,3248.9046 A15.625,15.625 0 0 1 935.5602,3233.2796 " fill="none" style="stroke:#000000;stroke-width:9.375;"/><line style="stroke:#000000;stroke-width:9.375;" x1="919.9352" x2="1376.1852" y1="3372.6351" y2="3372.6351"/><text fill="#000000" font-family="sans-serif" font-size="87.5" font-weight="bold" lengthAdjust="spacing" textLength="375" x="944.9352" y="3326.9991">Dataset</text></g><!--cluster Differential Privacy--><g id="cluster_Differential Privacy"><path d="M594.9352,2158.2796 L1532.4352,2158.2796 A23.4375,23.4375 0 0 1 1548.0602,2173.9046 L1591.8102,2297.6351 L2594.9352,2297.6351 A15.625,15.625 0 0 1 2610.5602,2313.2601 L2610.5602,2967.6546 A15.625,15.625 0 0 1 2594.9352,2983.2796 L594.9352,2983.2796 A15.625,15.625 0 0 1 579.3102,2967.6546 L579.3102,2173.9046 A15.625,15.625 0 0 1 594.9352,2158.2796 " fill="none" style="stroke:#000000;stroke-width:9.375;"/><line style="stroke:#000000;stroke-width:9.375;" x1="579.3102" x2="1591.8102" y1="2297.6351" y2="2297.6351"/><text fill="#000000" font-family="sans-serif" font-size="87.5" font-weight="bold" lengthAdjust="spacing" textLength="931.25" x="604.3102" y="2251.9991">Differential Privacy</text></g><!--cluster PFL Framework--><g id="cluster_PFL Framework"><path d="M5377.2719,3347.517 C5432.9265,3222.2286 5514.2769,3233.6113 5593.4068,3323.991 C5645.2904,3222.3249 5745.5397,3225.5405 5802.3775,3318.6765 C5854.7369,3232.2946 5938.5467,3202.5332 6002.6243,3306.3384 C6055.3311,3207.1871 6118.2491,3223.9092 6184.3319,3291.7869 C6249.0208,3206.5197 6321.337,3212.7467 6379.5807,3299.1187 C6435.9795,3181.4288 6527.5959,3187.5673 6590.9373,3292.5282 C6636.8568,3205.323 6725.0434,3206.0709 6775.2113,3287.8966 C6846.3478,3192.7851 6925.9141,3183.1939 6987.0725,3297.9687 C7044.4939,3196.1694 7101.9266,3212.9 7172.273,3284.1349 C7247.5802,3200.0142 7347.5136,3203.7038 7390.0838,3319.7563 C7441.9805,3226.1721 7524.1402,3228.673 7566.8966,3328.1282 C7608.161,3232.7727 7699.7789,3225.115 7755.4557,3313.3236 C7831.3586,3241.3033 7910.048,3238.8176 7958.4887,3344.6703 C8029.2204,3257.7546 8145.1265,3242.7943 8191.8102,3370.7796 C8208.9416,3368.8312 8219.7446,3381.7944 8212.1222,3398.1896 C8291.5085,3429.654 8301.5339,3510.3284 8231.7871,3559.9254 C8318.4307,3618.7455 8317.7394,3713.8203 8210.8158,3751.4448 C8318.0493,3816.1731 8323.2735,3881.911 8232.4051,3966.5244 C8307.644,4000.9655 8312.4489,4071.6639 8252.6371,4123.51 C8362.1398,4205.8907 8347.9149,4274.9827 8231.8975,4335.277 C8299.0617,4384.1479 8316.4912,4448.9421 8232.4775,4498.3506 C8347.9235,4557.404 8345.0101,4650.1129 8232.5731,4709.2696 C8303.1267,4813.4842 8273.4067,4887.2573 8148.0602,4908.2796 C8155.1157,4908.3194 8157.7573,4913.116 8153.8438,4919.0474 C8107.1119,5000.468 8015.7967,4994.9241 7969.5203,4918.5154 C7906.2705,5018.7972 7849.5917,5016.2038 7784.5436,4920.2103 C7725.6822,5034.6122 7639.1042,5030.2006 7569.2669,4931.2873 C7524.9495,5046.9062 7440.1492,5042.897 7365.5582,4962.7968 C7297.6183,5047.823 7210.9624,5047.1413 7172.4354,4934.1159 C7127.5057,5019.5278 7060.3874,5047.2003 6987.9632,4964.2392 C6935.1999,5064.4241 6859.8864,5072.4809 6796.9557,4974.0154 C6735.1317,5090.919 6634.1084,5073.6336 6578.0312,4968.3529 C6506.7571,5073.1714 6422.5411,5071.0301 6368.1052,4952.5249 C6308.4861,5049.4411 6235.1401,5035.4505 6174.7206,4953.3897 C6116.052,5035.4566 6050.3779,5042.5791 5991.4971,4953.6172 C5929.4052,5024.9404 5855.2686,5042.1895 5805.3053,4940.5601 C5740.0109,5056.4843 5650.0084,5044.6738 5577.1691,4948.6825 C5478.8703,5026.9306 5348.2669,5019.9714 5329.3102,4864.5296 C5338.8222,4860.8456 5346.2419,4865.0157 5345.8717,4875.8233 C5252.9147,4833.1005 5245.4232,4752.0078 5332.996,4696.3346 C5257.7654,4632.2735 5240.4579,4572.2385 5340.1523,4515.0839 C5243.2087,4461.2719 5250.9745,4391.3849 5335.7153,4333.1423 C5241.7734,4290.8757 5249.458,4198.4011 5327.2784,4148.2948 C5217.1381,4087.0745 5219.9782,3988.6525 5337.0998,3938.0484 C5268.0508,3885.6092 5264.9699,3811.3417 5345.4554,3766.1719 C5244.3634,3719.7232 5236.371,3646.3066 5329.9036,3583.306 C5226.4905,3495.2572 5257.047,3378.1274 5373.0602,3327.0296 C5383.0588,3330.9577 5386.2232,3339.6933 5377.2719,3347.517 " fill="none" style="stroke:#181818;stroke-width:6.25;"/><text fill="#000000" font-family="sans-serif" font-size="87.5" font-weight="bold" lengthAdjust="spacing" textLength="762.5" x="6379.3102" y="3439.4991">PFL Framework</text></g><!--cluster PFL Components--><g id="cluster_PFL Components"><path d="M5494.9352,3645.7796 L6332.4352,3645.7796 A23.4375,23.4375 0 0 1 6348.0602,3661.4046 L6391.8102,3785.1351 L8026.1852,3785.1351 A15.625,15.625 0 0 1 8041.8102,3800.7601 L8041.8102,4742.6546 A15.625,15.625 0 0 1 8026.1852,4758.2796 L5494.9352,4758.2796 A15.625,15.625 0 0 1 5479.3102,4742.6546 L5479.3102,3661.4046 A15.625,15.625 0 0 1 5494.9352,3645.7796 " fill="none" style="stroke:#000000;stroke-width:9.375;"/><line style="stroke:#000000;stroke-width:9.375;" x1="5479.3102" x2="6391.8102" y1="3785.1351" y2="3785.1351"/><text fill="#000000" font-family="sans-serif" font-size="87.5" font-weight="bold" lengthAdjust="spacing" textLength="831.25" x="5504.3102" y="3739.4991">PFL Components</text></g><!--cluster Outputs--><g id="cluster_Outputs"><path d="M8728.0939,3287.373 C8754.3704,3242.3586 8786.1004,3245.7664 8813.1581,3286.5989 C8835.0169,3241.9004 8866.2624,3244.367 8895.9571,3278.3532 C8923.2698,3227.8534 8957.3061,3232.0039 8992.3996,3269.8602 C9018.9813,3224.9436 9047.2507,3227.1609 9079.3722,3263.9643 C9105.6313,3227.1041 9135.1331,3222.6989 9163.341,3261.8105 C9185.9464,3217.204 9222.1098,3218.7046 9249.4941,3256.8342 C9279.9205,3211.1104 9323.0999,3228.0841 9341.8139,3269.275 C9363.673,3237.5298 9397.3859,3234.8659 9418.0173,3270.6601 C9448.0388,3232.4814 9478.2927,3235.1216 9501.8988,3277.3525 C9534.1041,3231.544 9566.9103,3232.8569 9594.0429,3282.2618 C9620.354,3234.4857 9664.4366,3245.4517 9684.5679,3288.4262 C9741.0628,3237.6953 9783.6051,3266.7459 9804.3102,3327.0296 C9810.6135,3323.2842 9814.239,3325.5962 9814.9013,3332.5918 C9867.9281,3364.5843 9858.4627,3396.8425 9818.6858,3432.3555 C9873.8406,3449.6197 9876.3126,3489.8718 9836.9974,3525.6737 C9885.4005,3549.5033 9883.7361,3594.3886 9835.9603,3617.1274 C9888.1945,3643.0787 9885.9845,3690.7428 9845.1378,3724.6397 C9885.8397,3740.4025 9892.6427,3781.7131 9861.2912,3810.9595 C9907.6844,3840.6107 9908.2033,3876.4442 9861.4281,3906.2291 C9906.1145,3938.1273 9897.0182,3974.5384 9854.1797,3999.6453 C9907.0793,4033.2913 9898.7115,4068.4818 9853.0299,4101.0096 C9892.0985,4138.3228 9889.3089,4177.6799 9832.4789,4193.7399 C9870.5305,4226.7327 9869.8435,4258.2599 9825.7436,4285.2031 C9883.1202,4320.7073 9880.409,4356.6394 9825.1577,4391.5229 C9858.9533,4462.9144 9849.2433,4507.4584 9760.5602,4514.5296 C9763.936,4509.7753 9768.9024,4510.1479 9771.7737,4515.1118 C9752.3571,4558.9115 9705.7913,4569.2183 9675.4843,4527.3527 C9660.9439,4570.1761 9628.7284,4577.662 9599.7101,4541.1871 C9571.111,4585.2777 9539.494,4598.8436 9501.0927,4551.7934 C9486.7316,4591.4629 9461.0351,4607.3172 9425.9251,4572.8233 C9403.0776,4614.3837 9365.8413,4616.7112 9334.6674,4582.9053 C9313.2128,4631.8296 9271.1846,4632.1299 9239.9476,4593.4868 C9209.1771,4630.9961 9170.0281,4626.6676 9152.0025,4580.1479 C9117.8399,4617.0134 9088.0603,4606.6744 9073.0302,4561.6884 C9043.8883,4594.6458 9003.2525,4601.0338 8984.2196,4550.8854 C8950.2163,4588.9109 8919.8803,4578.9524 8896.7862,4538.7002 C8868.1772,4576.0364 8830.0525,4570.7398 8809.2108,4529.9891 C8734.0069,4574.0246 8691.3729,4557.5637 8673.0602,4470.7796 C8675.8412,4467.1171 8679.7379,4467.3215 8681.548,4471.7928 C8636.8146,4445.3711 8644.1705,4406.5634 8683.0063,4381.4913 C8645.0812,4358.9151 8629.4214,4330.0611 8671.5559,4296.6765 C8617.2883,4266.7437 8623.1836,4233.7304 8667.5381,4199.7112 C8609.5945,4164.5887 8606.0419,4131.4368 8661.8458,4090.3914 C8618.9368,4070.4705 8622.5027,4034.1014 8658.2748,4010.6567 C8598.9308,3979.8766 8602.9886,3940.3533 8649.3183,3900.9462 C8609.6606,3875.8029 8612.065,3832.8309 8651.445,3809.5263 C8603.3291,3778.4621 8609.481,3736.2649 8658.5377,3712.2888 C8615.188,3686.2683 8619.9917,3649.4103 8658.3328,3623.2019 C8614.1573,3582.3942 8623.5486,3552.6057 8675.6546,3529.6194 C8622.5687,3496.6874 8635.4368,3466.3615 8675.3663,3433.1515 C8626.7584,3369.9214 8632.1488,3309.6569 8716.8102,3283.2796 C8721.7902,3278.6032 8727.0429,3281.2187 8728.0939,3287.373 " fill="none" style="stroke:#181818;stroke-width:6.25;"/><text fill="#000000" font-family="sans-serif" font-size="87.5" font-weight="bold" lengthAdjust="spacing" textLength="393.75" x="9041.8102" y="3395.7491">Outputs</text></g><!--entity Model--><g id="elem_Model"><rect fill="#F1F1F1" height="289.3555" rx="15.625" ry="15.625" style="stroke:#181818;stroke-width:3.125;" width="1587.5" x="801.1852" y="1352.0296"/><rect fill="#F1F1F1" height="62.5" style="stroke:#181818;stroke-width:3.125;" width="93.75" x="2263.6852" y="1383.2796"/><rect fill="#F1F1F1" height="12.5" style="stroke:#181818;stroke-width:3.125;" width="25" x="2251.1852" y="1395.7796"/><rect fill="#F1F1F1" height="12.5" style="stroke:#181818;stroke-width:3.125;" width="25" x="2251.1852" y="1420.7796"/><text fill="#000000" font-family="sans-serif" font-size="87.5" lengthAdjust="spacing" textLength="1337.5" x="894.9352" y="1558.2491">Model (TensorFlow or PyTorch)</text></g><!--entity Optimizer--><g id="elem_Optimizer"><rect fill="#F1F1F1" height="289.3555" rx="15.625" ry="15.625" style="stroke:#181818;stroke-width:3.125;" width="950" x="1119.9352" y="845.7796"/><rect fill="#F1F1F1" height="62.5" style="stroke:#181818;stroke-width:3.125;" width="93.75" x="1944.9352" y="877.0296"/><rect fill="#F1F1F1" height="12.5" style="stroke:#181818;stroke-width:3.125;" width="25" x="1932.4352" y="889.5296"/><rect fill="#F1F1F1" height="12.5" style="stroke:#181818;stroke-width:3.125;" width="25" x="1932.4352" y="914.5296"/><text fill="#000000" font-family="sans-serif" font-size="87.5" lengthAdjust="spacing" textLength="700" x="1213.6852" y="1051.9991">Model Optimizer</text></g><!--entity ModelMetrics--><g id="elem_ModelMetrics"><rect fill="#F1F1F1" height="289.3555" rx="15.625" ry="15.625" style="stroke:#181818;stroke-width:3.125;" width="1306.25" x="2885.5602" y="1352.0296"/><rect fill="#F1F1F1" height="62.5" style="stroke:#181818;stroke-width:3.125;" width="93.75" x="4066.8102" y="1383.2796"/><rect fill="#F1F1F1" height="12.5" style="stroke:#181818;stroke-width:3.125;" width="25" x="4054.3102" y="1395.7796"/><rect fill="#F1F1F1" height="12.5" style="stroke:#181818;stroke-width:3.125;" width="25" x="4054.3102" y="1420.7796"/><text fill="#000000" font-family="sans-serif" font-size="87.5" lengthAdjust="spacing" textLength="1056.25" x="2979.3102" y="1558.2491">Model Metrics Collectors</text></g><!--entity NNParams--><g id="elem_NNParams"><rect fill="#F1F1F1" height="289.3555" rx="15.625" ry="15.625" style="stroke:#181818;stroke-width:3.125;" width="1793.75" x="698.0602" y="5083.2796"/><rect fill="#F1F1F1" height="62.5" style="stroke:#181818;stroke-width:3.125;" width="93.75" x="2366.8102" y="5114.5296"/><rect fill="#F1F1F1" height="12.5" style="stroke:#181818;stroke-width:3.125;" width="25" x="2354.3102" y="5127.0296"/><rect fill="#F1F1F1" height="12.5" style="stroke:#181818;stroke-width:3.125;" width="25" x="2354.3102" y="5152.0296"/><text fill="#000000" font-family="sans-serif" font-size="87.5" lengthAdjust="spacing" textLength="1543.75" x="791.8102" y="5289.4991">Neural Network Training Parameters</text></g><!--entity FLParams--><g id="elem_FLParams"><rect fill="#F1F1F1" height="289.3555" rx="15.625" ry="15.625" style="stroke:#181818;stroke-width:3.125;" width="1831.25" x="679.3102" y="5589.5296"/><rect fill="#F1F1F1" height="62.5" style="stroke:#181818;stroke-width:3.125;" width="93.75" x="2385.5602" y="5620.7796"/><rect fill="#F1F1F1" height="12.5" style="stroke:#181818;stroke-width:3.125;" width="25" x="2373.0602" y="5633.2796"/><rect fill="#F1F1F1" height="12.5" style="stroke:#181818;stroke-width:3.125;" width="25" x="2373.0602" y="5658.2796"/><text fill="#000000" font-family="sans-serif" font-size="87.5" lengthAdjust="spacing" textLength="1581.25" x="773.0602" y="5795.7491">Federated Training Hyperparameters</text></g><!--entity train--><g id="elem_train"><rect fill="#F1F1F1" height="289.3555" rx="15.625" ry="15.625" style="stroke:#181818;stroke-width:3.125;" width="956.25" x="1116.8102" y="3502.0296"/><rect fill="#F1F1F1" height="62.5" style="stroke:#181818;stroke-width:3.125;" width="93.75" x="1948.0602" y="3533.2796"/><rect fill="#F1F1F1" height="12.5" style="stroke:#181818;stroke-width:3.125;" width="25" x="1935.5602" y="3545.7796"/><rect fill="#F1F1F1" height="12.5" style="stroke:#181818;stroke-width:3.125;" width="25" x="1935.5602" y="3570.7796"/><text fill="#000000" font-family="sans-serif" font-size="87.5" lengthAdjust="spacing" textLength="706.25" x="1210.5602" y="3708.2491">Training Dataset</text></g><!--entity eval--><g id="elem_eval"><rect fill="#F1F1F1" height="289.3555" rx="15.625" ry="15.625" style="stroke:#181818;stroke-width:3.125;" width="1050" x="1069.9352" y="4008.2796"/><rect fill="#F1F1F1" height="62.5" style="stroke:#181818;stroke-width:3.125;" width="93.75" x="1994.9352" y="4039.5296"/><rect fill="#F1F1F1" height="12.5" style="stroke:#181818;stroke-width:3.125;" width="25" x="1982.4352" y="4052.0296"/><rect fill="#F1F1F1" height="12.5" style="stroke:#181818;stroke-width:3.125;" width="25" x="1982.4352" y="4077.0296"/><text fill="#000000" font-family="sans-serif" font-size="87.5" lengthAdjust="spacing" textLength="800" x="1163.6852" y="4214.4991">Evaluation Dataset</text></g><!--entity DPPostprocessors--><g id="elem_DPPostprocessors"><rect fill="#F1F1F1" height="289.3555" rx="15.625" ry="15.625" style="stroke:#181818;stroke-width:3.125;" width="1731.25" x="729.3102" y="2427.0296"/><rect fill="#F1F1F1" height="62.5" style="stroke:#181818;stroke-width:3.125;" width="93.75" x="2335.5602" y="2458.2796"/><rect fill="#F1F1F1" height="12.5" style="stroke:#181818;stroke-width:3.125;" width="25" x="2323.0602" y="2470.7796"/><rect fill="#F1F1F1" height="12.5" style="stroke:#181818;stroke-width:3.125;" width="25" x="2323.0602" y="2495.7796"/><text fill="#000000" font-family="sans-serif" font-size="87.5" lengthAdjust="spacing" textLength="1481.25" x="823.0602" y="2633.2491">Differential Privacy Postprocessors</text></g><!--entity StatefulModel--><g id="elem_StatefulModel"><rect fill="#F1F1F1" height="289.3555" rx="15.625" ry="15.625" style="stroke:#181818;stroke-width:3.125;" width="862.5" x="5579.3102" y="3864.5296"/><rect fill="#F1F1F1" height="62.5" style="stroke:#181818;stroke-width:3.125;" width="93.75" x="6316.8102" y="3895.7796"/><rect fill="#F1F1F1" height="12.5" style="stroke:#181818;stroke-width:3.125;" width="25" x="6304.3102" y="3908.2796"/><rect fill="#F1F1F1" height="12.5" style="stroke:#181818;stroke-width:3.125;" width="25" x="6304.3102" y="3933.2796"/><text fill="#000000" font-family="sans-serif" font-size="87.5" lengthAdjust="spacing" textLength="612.5" x="5673.0602" y="4070.7491">Stateful Model</text></g><!--entity Backend--><g id="elem_Backend"><rect fill="#F1F1F1" height="289.3555" rx="15.625" ry="15.625" style="stroke:#181818;stroke-width:3.125;" width="631.25" x="5694.9352" y="4370.7796"/><rect fill="#F1F1F1" height="62.5" style="stroke:#181818;stroke-width:3.125;" width="93.75" x="6201.1852" y="4402.0296"/><rect fill="#F1F1F1" height="12.5" style="stroke:#181818;stroke-width:3.125;" width="25" x="6188.6852" y="4414.5296"/><rect fill="#F1F1F1" height="12.5" style="stroke:#181818;stroke-width:3.125;" width="25" x="6188.6852" y="4439.5296"/><text fill="#000000" font-family="sans-serif" font-size="87.5" lengthAdjust="spacing" textLength="381.25" x="5788.6852" y="4576.9991">Backend</text></g><!--entity FederatedAlgorithm--><g id="elem_FederatedAlgorithm"><rect fill="#F1F1F1" height="289.3555" rx="15.625" ry="15.625" style="stroke:#181818;stroke-width:3.125;" width="1125" x="6816.8102" y="4370.7796"/><rect fill="#F1F1F1" height="62.5" style="stroke:#181818;stroke-width:3.125;" width="93.75" x="7816.8102" y="4402.0296"/><rect fill="#F1F1F1" height="12.5" style="stroke:#181818;stroke-width:3.125;" width="25" x="7804.3102" y="4414.5296"/><rect fill="#F1F1F1" height="12.5" style="stroke:#181818;stroke-width:3.125;" width="25" x="7804.3102" y="4439.5296"/><text fill="#000000" font-family="sans-serif" font-size="87.5" lengthAdjust="spacing" textLength="875" x="6910.5602" y="4576.9991">Federated Algorithm</text></g><!--entity trained_model--><g id="elem_trained_model"><rect fill="#F1F1F1" height="289.3555" rx="15.625" ry="15.625" style="stroke:#181818;stroke-width:3.125;" width="862.5" x="8807.4352" y="3502.0296"/><rect fill="#F1F1F1" height="62.5" style="stroke:#181818;stroke-width:3.125;" width="93.75" x="9544.9352" y="3533.2796"/><rect fill="#F1F1F1" height="12.5" style="stroke:#181818;stroke-width:3.125;" width="25" x="9532.4352" y="3545.7796"/><rect fill="#F1F1F1" height="12.5" style="stroke:#181818;stroke-width:3.125;" width="25" x="9532.4352" y="3570.7796"/><text fill="#000000" font-family="sans-serif" font-size="87.5" lengthAdjust="spacing" textLength="612.5" x="8901.1852" y="3708.2491">Trained Model</text></g><!--entity FLMetrics--><g id="elem_FLMetrics"><rect fill="#F1F1F1" height="289.3555" rx="15.625" ry="15.625" style="stroke:#181818;stroke-width:3.125;" width="931.25" x="8773.0602" y="4008.2796"/><rect fill="#F1F1F1" height="62.5" style="stroke:#181818;stroke-width:3.125;" width="93.75" x="9579.3102" y="4039.5296"/><rect fill="#F1F1F1" height="12.5" style="stroke:#181818;stroke-width:3.125;" width="25" x="9566.8102" y="4052.0296"/><rect fill="#F1F1F1" height="12.5" style="stroke:#181818;stroke-width:3.125;" width="25" x="9566.8102" y="4077.0296"/><text fill="#000000" font-family="sans-serif" font-size="87.5" lengthAdjust="spacing" textLength="681.25" x="8866.8102" y="4214.4991">Training Metrics</text></g><!--link Inputs to PFL Framework--><!--link Model Configuration to StatefulModel--><g id="link_Model Configuration_StatefulModel"><path d="M4361.4213,1858.2796 C4376.8092,1858.2796 4392.1436,1858.2796 4407.4206,1858.2796 C4437.9747,1858.2796 4468.2996,1858.2796 4498.3645,1858.2796 C4738.8842,1858.2796 4962.7736,1858.2796 5154.3952,1858.2796 C5537.6383,1858.2796 5791.8102,1858.2796 5791.8102,1858.2796 C5791.8102,1858.2796 5791.8102,3344.3421 5791.8102,3826.4046 " fill="none" id="Model Configuration-to-StatefulModel" style="stroke:#181818;stroke-width:6.25;"/><polygon fill="#181818" points="5791.8102,3863.9046,5816.8102,3807.6546,5791.8102,3832.6546,5766.8102,3807.6546,5791.8102,3863.9046" style="stroke:#181818;stroke-width:6.25;"/></g><!--link Dataset to Backend--><g id="link_Dataset_Backend"><path d="M2282.8148,4514.5296 C2288.1159,4514.5296 2293.4398,4514.5296 2298.7861,4514.5296 C2309.4786,4514.5296 2320.2609,4514.5296 2331.1306,4514.5296 C2352.8699,4514.5296 2374.9587,4514.5296 2397.3784,4514.5296 C2487.0571,4514.5296 2582.0302,4514.5296 2681.1066,4514.5296 C2879.2594,4514.5296 3093.8258,4514.5296 3315.2789,4514.5296 C4201.0914,4514.5296 5159.5914,4514.5296 5656.0602,4514.5296 " fill="none" id="Dataset-to-Backend" style="stroke:#181818;stroke-width:6.25;"/><polygon fill="#181818" points="5693.5602,4514.5296,5637.3102,4489.5296,5662.3102,4514.5296,5637.3102,4539.5296,5693.5602,4514.5296" style="stroke:#181818;stroke-width:6.25;"/></g><!--link Differential Privacy to Backend--><g id="link_Differential Privacy_Backend"><path d="M2613.7231,2933.2796 C2617.4329,2933.2796 2621.1418,2933.2796 2624.8496,2933.2796 C2632.2651,2933.2796 2639.6763,2933.2796 2647.0814,2933.2796 C2661.8915,2933.2796 2676.6772,2933.2796 2691.4246,2933.2796 C2720.9194,2933.2796 2750.2611,2933.2796 2779.3389,2933.2796 C2837.4946,2933.2796 2894.595,2933.2796 2949.7548,2933.2796 C3060.0743,2933.2796 3162.6315,2933.2796 3250.3434,2933.2796 C3425.7672,2933.2796 3541.8102,2933.2796 3541.8102,2933.2796 C3541.8102,2933.2796 3541.8102,4439.5296 3541.8102,4439.5296 C3541.8102,4439.5296 4988.6227,4439.5296 5655.3727,4439.5296 " fill="none" id="Differential Privacy-to-Backend" style="stroke:#181818;stroke-width:6.25;"/><polygon fill="#181818" points="5692.8727,4439.5296,5636.6227,4414.5296,5661.6227,4439.5296,5636.6227,4464.5296,5692.8727,4439.5296" style="stroke:#181818;stroke-width:6.25;"/></g><!--link Training Configuration to FederatedAlgorithm--><g id="link_Training Configuration_FederatedAlgorithm"><path d="M2661.3472,6095.7796 C2696.9022,6095.7796 2733.0799,6095.7796 2769.8379,6095.7796 C2843.3539,6095.7796 2919.1907,6095.7796 2997.0076,6095.7796 C3152.6414,6095.7796 3316.1956,6095.7796 3484.9437,6095.7796 C3822.4401,6095.7796 4180.7125,6095.7796 4537.9508,6095.7796 C5966.9039,6095.7796 7379.3102,6095.7796 7379.3102,6095.7796 C7379.3102,6095.7796 7379.3102,5089.4046 7379.3102,4697.9671 " fill="none" id="Training Configuration-to-FederatedAlgorithm" style="stroke:#181818;stroke-width:6.25;"/><polygon fill="#181818" points="7379.3102,4660.4671,7354.3102,4716.7171,7379.3102,4691.7171,7404.3102,4716.7171,7379.3102,4660.4671" style="stroke:#181818;stroke-width:6.25;"/></g><!--link Backend to FederatedAlgorithm--><g id="link_Backend_FederatedAlgorithm"><path d="M6326.3102,4562.4671 C6471.5602,4562.4671 6610.9352,4562.4671 6777.8727,4562.4671 " fill="none" id="Backend-to-FederatedAlgorithm" style="stroke:#181818;stroke-width:6.25;"/><polygon fill="#181818" points="6815.3727,4562.4671,6759.1227,4537.4671,6784.1227,4562.4671,6759.1227,4587.4671,6815.3727,4562.4671" style="stroke:#181818;stroke-width:6.25;"/></g><!--link StatefulModel to FederatedAlgorithm--><g id="link_StatefulModel_FederatedAlgorithm"><path d="M6385.5602,4153.2796 C6385.5602,4287.5921 6385.5602,4466.5921 6385.5602,4466.5921 C6385.5602,4466.5921 6553.8727,4466.5921 6778.1227,4466.5921 " fill="none" id="StatefulModel-to-FederatedAlgorithm" style="stroke:#181818;stroke-width:6.25;"/><polygon fill="#181818" points="6815.6227,4466.5921,6759.3727,4441.5921,6784.3727,4466.5921,6759.3727,4491.5921,6815.6227,4466.5921" style="stroke:#181818;stroke-width:6.25;"/></g><!--link FederatedAlgorithm to Outputs--><g id="link_FederatedAlgorithm_Outputs"><path d="M7942.2477,4514.5296 C8072.6383,4514.5296 8214.4977,4514.5296 8354.9577,4514.5296 C8425.1876,4514.5296 8495.0678,4514.5296 8562.9895,4514.5296 C8579.9699,4514.5296 8596.828,4514.5296 8613.5385,4514.5296 C8615.6273,4514.5296 8580.2138,4514.5296 8582.298,4514.5296 " fill="none" id="FederatedAlgorithm-to-Outputs" style="stroke:#181818;stroke-width:6.25;"/><polygon fill="#181818" points="8619.798,4514.5296,8563.548,4489.5296,8588.548,4514.5296,8563.548,4539.5296,8619.798,4514.5296" style="stroke:#181818;stroke-width:6.25;"/></g><!--SRC=[TLF1Rfmm4Btp5QEzf3qWvPHJLAbDYbefsI1rRr5KMJ20jSP6zf1eM-s_Tp0OmtQvxRvvVlFcpQ2m8Y03LjODGIaj5YIDJjnHwavOqKBPIRYxlLqWIcgaKuTWB3KcIP92cRw4tK_TzUHsy3S1w4Hn53N2xjcKgE31w4hMlHM3-CW0U1rhdmwedR6PCX-i2FdfO6pHV7u3uS0pbkINZcGh_w3rvVdValACP6NXkATIF8snBafDDQQVboOFLaWjTRtXSu-CADWZVHXxX9cT3t4WuTHXl_U06nzbM2BhO1dvFpWqswqVPK_pexD_E9jw52GSKd31ahFGLF82D821yVrTgDwRNt6GOK-vR26h2YrgaZnURkMxA4wBVjVAa1j7dJK5EXUYVSpNe9_bFDz5dZr1DWmzfCVoi8n-A3wOjZEQ-xX5yr_4uLMz6XVd-mGeNWNplh4Iwj8Jfj-X55VmLTN6IchQCVE0pt1m72o_z1HlUSoTLQ8J6f7VxUGahcQwi6ctuTvOUluyqjT6bYNgjpJzSXaEqwv-C6awaDVpnmCPgs7uZQsc5wojcnz8LmAwkGB2VPfkVZn9ChNQKbnDiqLAhdJrSymhOcTnNVSntF-Z_GS0]--></g></svg>